<svg width="210" height="210" fill="none" xmlns="http://www.w3.org/2000/svg"><path d="M105.19 152.83c37.146 0 67.26-30.113 67.26-67.26 0-37.147-30.114-67.26-67.26-67.26-37.147 0-67.26 30.113-67.26 67.26 0 37.147 30.113 67.26 67.26 67.26z" fill="#F2F7F8"/><path d="M105.19 181.85H56.53c-6.2 0-8.65-6-9.07-9.18l-9.28-58.94a1.012 1.012 0 012-.31l9.28 59c0 .32 1.11 7.47 7.1 7.47h48.66a1 1 0 110 2l-.03-.04z" fill="#8F1A37"/><path d="M153.85 181.85h-48.66a1 1 0 110-2h48.66c6 0 7.05-7.15 7.09-7.45l9.29-59a1.013 1.013 0 012 .31l-9.28 59c-.46 3.13-2.9 9.14-9.1 9.14zM79.4 158.67a.513.513 0 01-.5-.5v-22.1a.501.501 0 111 0v22.1a.5.5 0 01-.5.5zm11.25 0a.503.503 0 01-.5-.5v-22.1a.501.501 0 111 0v22.1a.51.51 0 01-.5.5zm11.24 0a.512.512 0 01-.5-.5v-22.1a.5.5 0 011 0v22.1a.5.5 0 01-.5.5zm22.49 0a.503.503 0 01-.5-.5v-22.1a.5.5 0 011 0v22.1a.5.5 0 01-.5.5z" fill="#8F1A37"/><path d="M135.63 158.67a.504.504 0 01-.354-.146.504.504 0 01-.146-.354v-22.1a.5.5 0 111 0v22.1a.513.513 0 01-.5.5zm11.24 0a.504.504 0 01-.354-.146.504.504 0 01-.146-.354v-22.1a.5.5 0 111 0v22.1a.5.5 0 01-.5.5zm-101.2-2.74a.503.503 0 01-.5-.5v-19.36a.5.5 0 111 0v19.36a.501.501 0 01-.5.5zm11.24 2.74a.513.513 0 01-.5-.5v-22.1a.5.5 0 111 0v22.1a.501.501 0 01-.5.5z" fill="#8F1A37"/><path d="M56.91 136.57a.513.513 0 01-.5-.5V114a.5.5 0 111 0v22.1a.5.5 0 01-.5.47zm11.25 0a.503.503 0 01-.5-.5V114a.5.5 0 111 0v22.1a.51.51 0 01-.5.47zm11.24 0a.513.513 0 01-.5-.5V114a.5.5 0 111 0v22.1a.5.5 0 01-.5.47zm-22.49 44.59a.513.513 0 01-.5-.5v-22.1a.5.5 0 111 0v22.1a.5.5 0 01-.5.5zm11.25 0a.503.503 0 01-.5-.5v-22.1a.5.5 0 111 0v22.1a.51.51 0 01-.5.5zm11.24 0a.513.513 0 01-.5-.5v-22.1a.5.5 0 111 0v22.1a.5.5 0 01-.5.5zm22.49 0a.513.513 0 01-.5-.5v-22.1a.5.5 0 011 0v22.1c0 .133-.053.26-.146.354a.504.504 0 01-.354.146zm11.25 0a.501.501 0 01-.5-.5v-22.1a.5.5 0 011 0v22.1a.508.508 0 01-.5.5zm11.24 0a.501.501 0 01-.5-.5v-22.1a.5.5 0 011 0v22.1c0 .133-.053.26-.146.354a.504.504 0 01-.354.146zm-22.49-44.59a.514.514 0 01-.351-.149.514.514 0 01-.149-.351V114a.5.5 0 011 0v22.1a.5.5 0 01-.5.47zm11.25 0a.501.501 0 01-.5-.5V114a.5.5 0 011 0v22.1a.512.512 0 01-.5.47zm11.24 0a.501.501 0 01-.5-.5V114a.5.5 0 011 0v22.1a.5.5 0 01-.5.47zm22.49 0a.501.501 0 01-.5-.5V114a.5.5 0 011 0v22.1a.5.5 0 01-.5.47zm11.25 0a.501.501 0 01-.5-.5V114a.5.5 0 011 0v22.1a.512.512 0 01-.5.47zm11.24-12.2a.501.501 0 01-.5-.5V114a.5.5 0 011 0v9.9a.5.5 0 01-.5.47z" fill="#8F1A37"/><path d="M79.4 136.57H56.91a.513.513 0 01-.5-.5.5.5 0 01.5-.5H79.4a.503.503 0 01.5.5.5.5 0 01-.5.5zm0 11.24H56.91a.503.503 0 01-.5-.5.51.51 0 01.5-.5H79.4a.503.503 0 01.5.5.5.5 0 01-.5.5zm0 11.25H56.91a.513.513 0 01-.5-.5.5.5 0 01.5-.5H79.4a.503.503 0 01.5.5.5.5 0 01-.5.5zm44.98-22.49h-22.49a.514.514 0 01-.351-.149.514.514 0 01-.149-.351.5.5 0 01.5-.5h22.49c.133 0 .26.053.354.146a.504.504 0 010 .708.504.504 0 01-.354.146zm0 11.24h-22.49a.501.501 0 01-.5-.5.513.513 0 01.5-.5h22.49c.133 0 .26.053.354.146a.504.504 0 010 .708.504.504 0 01-.354.146zm0 11.25h-22.49a.514.514 0 01-.351-.149.514.514 0 01-.149-.351.5.5 0 01.5-.5h22.49c.133 0 .26.053.354.146a.504.504 0 010 .708.504.504 0 01-.354.146zm43.29-22.49h-20.8a.501.501 0 010-1h20.8c.133 0 .26.053.354.146a.504.504 0 010 .708.504.504 0 01-.354.146zm-1.77 11.24h-19a.501.501 0 010-1h19c.133 0 .26.053.354.146a.504.504 0 010 .708.504.504 0 01-.354.146zm-1.77 11.25h-17.26a.501.501 0 010-1h17.26c.133 0 .26.053.354.146a.504.504 0 010 .708.504.504 0 01-.354.146zm-62.24-44.98H79.4a.513.513 0 01-.5-.5.5.5 0 01.5-.5h22.49c.133 0 .26.053.354.146a.504.504 0 010 .708.504.504 0 01-.354.146zm0 11.24H79.4a.503.503 0 01-.5-.5.51.51 0 01.5-.5h22.49c.133 0 .26.053.354.146a.504.504 0 010 .708.504.504 0 01-.354.146z" fill="#8F1A37"/><path d="M101.89 136.57H79.4a.508.508 0 01-.5-.5.497.497 0 01.5-.5h22.49a.5.5 0 010 1zm0 22.29H79.4a.503.503 0 01-.5-.5.512.512 0 01.5-.5h22.49a.5.5 0 010 1zm0 11.25H79.4a.508.508 0 01-.5-.5.497.497 0 01.5-.5h22.49a.5.5 0 010 1zm0 11.24H79.4a.503.503 0 01-.5-.5.497.497 0 01.5-.5h22.49a.5.5 0 010 1zm44.98-.19a.503.503 0 01-.5-.5v-22.1a.5.5 0 111 0v22.1a.5.5 0 01-.5.5zm11.25-1.16a.503.503 0 01-.5-.5v-20.94a.5.5 0 111 0v20.94a.5.5 0 01-.5.5z" fill="#8F1A37"/><path d="M146.87 158.86h-22.49a.501.501 0 010-1h22.49c.133 0 .26.053.354.146a.504.504 0 010 .708.504.504 0 01-.354.146zm0 11.25h-22.49a.501.501 0 010-1h22.49c.133 0 .26.053.354.146a.504.504 0 010 .708.504.504 0 01-.354.146zm0 11.24h-22.49a.501.501 0 010-1h22.49c.133 0 .26.053.354.146a.504.504 0 010 .708.504.504 0 01-.354.146zm-89.96-22.49H46.45a.503.503 0 01-.5-.5.5.5 0 01.5-.5h10.46a.503.503 0 01.5.5.5.5 0 01-.5.5zm0 11.25H48a.503.503 0 01-.5-.5.5.5 0 01.5-.5h8.92a.503.503 0 01.5.5.507.507 0 01-.15.357.501.501 0 01-.36.143zm0-56.03H39.16a.513.513 0 01-.5-.5.5.5 0 01.5-.5h17.75a.503.503 0 01.5.5.5.5 0 01-.5.5zm0 11.24h-16a.503.503 0 01-.5-.5.51.51 0 01.5-.5h16a.503.503 0 01.5.5.5.5 0 01-.5.5zm0 11.25H43a.503.503 0 01-.5-.5.5.5 0 01.5-.5h13.91a.503.503 0 01.5.5.5.5 0 01-.5.5zm89.96-22.49h-22.49a.501.501 0 010-1h22.49c.133 0 .26.053.354.146a.504.504 0 010 .708.504.504 0 01-.354.146zm0 11.24h-22.49a.501.501 0 010-1h22.49c.133 0 .26.053.354.146a.504.504 0 010 .708.504.504 0 01-.354.146zm0 11.25h-22.49a.501.501 0 010-1h22.49c.133 0 .26.053.354.146a.504.504 0 010 .708.504.504 0 01-.354.146zM76.84 115a7.997 7.997 0 01-3.55-.84 7.829 7.829 0 01-3.81-4 6.34 6.34 0 01.13-5.26l25-52.8c1.64-3.32 6-4.53 9.62-2.72a7.79 7.79 0 013.81 4 6.353 6.353 0 01-.12 5.25l-25 52.81a6.644 6.644 0 01-6.08 3.56z" fill="#8F1A37"/><path d="M175.851 103.8H37.581c-3.51 0-6.36 3.62-6.36 8.06s2.85 8.06 6.36 8.06h138.27c3.51 0 6.36-3.62 6.36-8.06s-2.85-8.06-6.36-8.06z" fill="#8F1A37"/><path d="M108.09 57.53l25 52.82c1.4 2.82 5.1 3.82 8.28 2.25 3.18-1.57 4.62-5.13 3.23-7.94l-25-52.82c-1.39-2.82-5.1-3.83-8.27-2.25-3.19 1.57-4.64 5.13-3.24 7.94z" fill="#fff"/><path d="M138.261 114.35a7.596 7.596 0 01-1.95-.26 6.35 6.35 0 01-2.408-1.199 6.342 6.342 0 01-1.692-2.091L107.191 58a6.31 6.31 0 01-.13-5.25 8 8 0 019.33-4.62 6.324 6.324 0 014.1 3.29l25 52.84c1.63 3.29 0 7.45-3.69 9.27a8.003 8.003 0 01-3.54.82zm-23.83-64.51a6.088 6.088 0 00-2.67.64 5.867 5.867 0 00-2.85 3 4.382 4.382 0 00.07 3.62l25 52.81a4.32 4.32 0 002.82 2.24 5.82 5.82 0 004.1-.45c2.68-1.33 3.93-4.29 2.78-6.61l-25-52.83a4.368 4.368 0 00-2.82-2.26 5.671 5.671 0 00-1.43-.16z" fill="#8F1A37"/><path fill-rule="evenodd" clip-rule="evenodd" d="M37 150.13l41.4-45.33H38a6.663 6.663 0 00-6.244 4.349 6.66 6.66 0 00-.405 2.651l1.82 37a2.23 2.23 0 003.83 1.33z" fill="#fff"/><path d="M30.34 111.84a7.666 7.666 0 012.116-5.634 7.648 7.648 0 015.534-2.366H78.4a1.002 1.002 0 01.74 1.68L37.76 150.8a3.216 3.216 0 01-3.468.868 3.217 3.217 0 01-2.132-2.868m5.83-43a5.66 5.66 0 00-5.65 5.94l1.82 37a1.23 1.23 0 002.13.77l39.85-43.71H37.99z" fill="#8F1A37"/></svg>